HIERARCHY
ROOT hip
{
  OFFSET 0 0 0
  CHANNELS 6 Xposition Yposition Zposition Zrotation Yrotation Xrotation
  JOINT abdomen
  {
    OFFSET 0 20.6881 -0.73152
    CHANNELS 3 Zrotation Xrotation Yrotation
    JOINT chest
    {
      OFFSET 0 11.7043 -0.48768
      CHANNELS 3 Zrotation Xrotation Yrotation
      JOINT neck
      {
        OFFSET 0 22.1894 -2.19456
        CHANNELS 3 Zrotation Xrotation Yrotation
        JOINT head
        {
          OFFSET -0.24384 7.07133 1.2192
          CHANNELS 3 Zrotation Xrotation Yrotation
          JOINT leftEye
          {
            OFFSET 4.14528 8.04674 8.04672
            CHANNELS 3 Zrotation Xrotation Yrotation
            End Site
            {
              OFFSET 1 0 0
            }
          }
          JOINT rightEye
          {
            OFFSET -3.6576 8.04674 8.04672
            CHANNELS 3 Zrotation Xrotation Yrotation
            End Site
            {
              OFFSET 1 0 0
            }
          }
        }
      }
      JOINT rCollar
      {
        OFFSET -2.68224 19.2634 -4.8768
        CHANNELS 3 Zrotation Xrotation Yrotation
        JOINT rShldr
        {
          OFFSET -8.77824 -1.95073 1.46304
          CHANNELS 3 Zrotation Xrotation Yrotation
          JOINT rForeArm
          {
            OFFSET -28.1742 -1.7115 0.48768
            CHANNELS 3 Zrotation Xrotation Yrotation
            JOINT rHand
            {
              OFFSET -22.5879 0.773209 7.07136
              CHANNELS 3 Zrotation Xrotation Yrotation
              JOINT rThumb1
              {
                OFFSET -1.2192 -0.487915 3.41376
                CHANNELS 3 Zrotation Xrotation Yrotation
                JOINT rThumb2
                {
                  OFFSET -3.37035 -0.52449 3.41376
                  CHANNELS 3 Zrotation Xrotation Yrotation
                  End Site
                  {
                    OFFSET -1.78271 -1.18214 1.43049
                  }
                }
              }
              JOINT rIndex1
              {
                OFFSET -7.75947 0.938293 5.60832
                CHANNELS 3 Zrotation Xrotation Yrotation
                JOINT rIndex2
                {
                  OFFSET -2.54057 -0.884171 1.56538
                  CHANNELS 3 Zrotation Xrotation Yrotation
                  End Site
                  {
                    OFFSET -1.62519 -0.234802 1.16502
                  }
                }
              }
              JOINT rMid1
              {
                OFFSET -8.24714 1.18213 3.41376
                CHANNELS 3 Zrotation Xrotation Yrotation
                JOINT rMid2
                {
                  OFFSET -3.10165 -0.590103 1.0647
                  CHANNELS 3 Zrotation Xrotation Yrotation
                  End Site
                  {
                    OFFSET -2.48547 -0.328903 0.83742
                  }
                }
              }
              JOINT rRing1
              {
                OFFSET -8.82822 0.546677 1.51678
                CHANNELS 3 Zrotation Xrotation Yrotation
                JOINT rRing2
                {
                  OFFSET -2.60934 -0.819778 -0.0198488
                  CHANNELS 3 Zrotation Xrotation Yrotation
                  End Site
                  {
                    OFFSET -2.33842 -0.294052 0.168128
                  }
                }
              }
              JOINT rPinky1
              {
                OFFSET -8.27202 -0.0477905 -0.4584
                CHANNELS 3 Zrotation Xrotation Yrotation
                JOINT rPinky2
                {
                  OFFSET -1.82734 -0.647385 -0.700984
                  CHANNELS 3 Zrotation Xrotation Yrotation
                  End Site
                  {
                    OFFSET -1.69225 -0.51767 -0.607171
                  }
                }
              }
            }
          }
        }
      }
      JOINT lCollar
      {
        OFFSET 2.68224 19.2634 -4.8768
        CHANNELS 3 Zrotation Xrotation Yrotation
        JOINT lShldr
        {
          OFFSET 8.77824 -1.95073 1.46304
          CHANNELS 3 Zrotation Xrotation Yrotation
          JOINT lForeArm
          {
            OFFSET 28.1742 -1.7115 0.48768
            CHANNELS 3 Zrotation Xrotation Yrotation
            JOINT lHand
            {
              OFFSET 22.5879 0.773209 7.07136
              CHANNELS 3 Zrotation Xrotation Yrotation
              JOINT lThumb1
              {
                OFFSET 1.2192 -0.487915 3.41376
                CHANNELS 3 Zrotation Xrotation Yrotation
                JOINT lThumb2
                {
                  OFFSET 3.37035 -0.52449 3.41376
                  CHANNELS 3 Zrotation Xrotation Yrotation
                  End Site
                  {
                    OFFSET 1.78271 -1.18214 1.43049
                  }
                }
              }
              JOINT lIndex1
              {
                OFFSET 7.75947 0.938293 5.60832
                CHANNELS 3 Zrotation Xrotation Yrotation
                JOINT lIndex2
                {
                  OFFSET 2.54057 -0.884171 1.56538
                  CHANNELS 3 Zrotation Xrotation Yrotation
                  End Site
                  {
                    OFFSET 1.62519 -0.234802 1.16502
                  }
                }
              }
              JOINT lMid1
              {
                OFFSET 8.24714 1.18213 3.41376
                CHANNELS 3 Zrotation Xrotation Yrotation
                JOINT lMid2
                {
                  OFFSET 3.10165 -0.590103 1.0647
                  CHANNELS 3 Zrotation Xrotation Yrotation
                  End Site
                  {
                    OFFSET 2.48547 -0.328903 0.83742
                  }
                }
              }
              JOINT lRing1
              {
                OFFSET 8.82822 0.546677 1.51678
                CHANNELS 3 Zrotation Xrotation Yrotation
                JOINT lRing2
                {
                  OFFSET 2.60934 -0.819778 -0.0198488
                  CHANNELS 3 Zrotation Xrotation Yrotation
                  End Site
                  {
                    OFFSET 2.33842 -0.294052 0.168128
                  }
                }
              }
              JOINT lPinky1
              {
                OFFSET 8.27202 -0.0477905 -0.4584
                CHANNELS 3 Zrotation Xrotation Yrotation
                JOINT lPinky2
                {
                  OFFSET 1.82734 -0.647385 -0.700984
                  CHANNELS 3 Zrotation Xrotation Yrotation
                  End Site
                  {
                    OFFSET 1.69225 -0.51767 -0.607171
                  }
                }
              }
            }
          }
        }
      }
    }
  }
  JOINT rButtock
  {
    OFFSET -8.77824 4.35084 1.2192
    CHANNELS 3 Zrotation Xrotation Yrotation
    JOINT rThigh
    {
      OFFSET 0 -1.70687 -2.19456
      CHANNELS 3 Zrotation Xrotation Yrotation
      JOINT rShin
      {
        OFFSET 0 -36.8199 0.73152
        CHANNELS 3 Zrotation Xrotation Yrotation
        JOINT rFoot
        {
          OFFSET 0.73152 -45.1104 -5.12064
          CHANNELS 3 Zrotation Xrotation Yrotation
          End Site
          {
            OFFSET -1.1221 -3.69964 12.103
          }
        }
      }
    }
  }
  JOINT lButtock
  {
    OFFSET 8.77824 4.35084 1.2192
    CHANNELS 3 Zrotation Xrotation Yrotation
    JOINT lThigh
    {
      OFFSET 0 -1.70687 -2.19456
      CHANNELS 3 Zrotation Xrotation Yrotation
      JOINT lShin
      {
        OFFSET 0 -36.8199 0.73152
        CHANNELS 3 Zrotation Xrotation Yrotation
        JOINT lFoot
        {
          OFFSET -0.73152 -45.1104 -5.12064
          CHANNELS 3 Zrotation Xrotation Yrotation
          End Site
          {
            OFFSET 1.1221 -3.69964 12.103
          }
        }
      }
    }
  }
}
MOTION
Frames:	9
Frame Time:	0.00833333
-15.9907 84.8855 95.0036 0.0 0.0 0.0 -0.188091 -0.00125237 -0.0053853 -0.0519265 -0.00198481 -0.00899597 4.03269e-15 1.59028e-15 3.10603e-18 1.21538e-14 9.54166e-15 -4.65902e-18 -0.0 0.0 0.0 -0.0 0.0 0.0 2.13566e-15 -3.49426e-18 9.93923e-17 4.37193e-14 -1.36664e-16 1.19271e-15 7.361e-13 -2.2244e-13 -2.54444e-14 8.40127e-12 2.08898e-13 1.27222e-14 1.98193e-11 -2.73924e-14 0.0 3.42132e-11 -4.45278e-14 2.38542e-15 1.9822e-11 -2.66371e-14 -1.27222e-14 7.73091 5.47488 0.417314 1.98191e-11 -2.76311e-14 0.0 2.90554 0.965183 0.102902 1.98251e-11 -2.75317e-14 0.0 10.2786 0.731801 0.0259123 1.98099e-11 -2.50469e-14 6.36111e-15 2.22167 -0.733487 -0.20892 1.93956e-15 -3.49426e-18 -9.93923e-17 4.09831e-14 -4.41053e-16 -9.93923e-16 7.31229e-13 2.17073e-13 9.54166e-15 8.40547e-12 -2.33671e-13 -3.18055e-15 1.98231e-11 -3.53022e-14 0.0 3.42494e-11 -6.04305e-14 1.59028e-15 1.9818e-11 -3.69739e-14 3.18055e-15 -7.73091 5.47488 -0.417314 1.98243e-11 -3.54831e-14 0.0 -2.90554 0.965183 -0.102902 1.98156e-11 -3.53837e-14 7.95139e-16 -10.2786 0.731801 -0.0259123 1.9829e-11 -3.33958e-14 -9.54166e-15 -2.22167 -0.733487 0.20892 -2.03217e-16 0.0 -3.88251e-19 0.336726 -2.83766 -0.0337239 -0.00646388 -0.412342 -0.0567799 -0.478865 3.24961 0.120273 2.03217e-16 0.0 3.88251e-19 -0.623543 -3.58112 0.0516577 0.00431633 0.934345 0.0368644 0.481742 2.64641 -0.108457
-16.1631 82.7969 89.0274 -179.665 -18.9506 -154.737 0.381793 -4.97455 1.62537 -0.153987 -0.734751 0.287702 -0.075127 0.974605 0.638074 0.132297 7.7103 -0.900844 -0.0 0.0 0.0 -0.0 0.0 0.0 2.70872e-14 -2.53669e-14 -6.93623e-14 20.6693 -1.35143 -3.28641 0.251511 0.0573283 -0.432387 0.14689 8.51966 1.15011 2.73369e-10 1.02028e-11 -2.88097e-10 4.64425e-10 1.4789e-11 -5.03396e-10 2.73371e-10 1.02047e-11 -2.8811e-10 7.73091 5.47488 0.417314 2.73369e-10 1.02038e-11 -2.881e-10 2.90554 0.965183 0.102902 2.73376e-10 1.02039e-11 -2.88099e-10 10.2786 0.731801 0.0259123 2.73363e-10 1.02049e-11 -2.88092e-10 2.22167 -0.733487 -0.20892 2.69879e-14 -2.5365e-14 -6.95746e-14 -20.0814 -1.77658 4.39586 3.13256 -1.25936 -5.05646 -0.00983368 2.2002 -0.308396 7.42361e-11 5.45553e-10 -8.01656e-11 1.27946e-10 9.44583e-10 -1.39029e-10 7.4231e-11 5.4555e-10 -8.01624e-11 -7.73091 5.47488 -0.417314 7.42362e-11 5.45551e-10 -8.01676e-11 -2.90554 0.965183 -0.102902 7.42289e-11 5.45551e-10 -8.01655e-11 -10.2786 0.731801 -0.0259123 7.42428e-11 5.45553e-10 -8.01751e-11 -2.22167 -0.733487 0.20892 -2.03217e-16 0.0 -3.88251e-19 1.73061 -3.60123 0.361653 0.020372 0.79842 0.102271 -1.22552 -3.38834 -9.03266 2.03217e-16 0.0 3.88251e-19 -2.41235 -15.2218 1.79536 -0.0660895 8.73042 -0.213382 1.53293 -5.23558 6.62882
-16.3413 82.8006 88.8759 -179.804 -19.1177 -154.486 1.30616 -10.2262 3.40457 -0.260191 -1.51841 0.604156 -0.174272 2.0161 1.31043 0.542973 15.8435 -1.91419 -0.0 0.0 0.0 -0.0 0.0 0.0 5.80401e-14 -5.13391e-14 -1.42202e-13 42.3555 -2.77544 -6.77674 0.511851 0.116587 -0.878324 -0.0862072 17.5242 2.455 5.53583e-10 7.43787e-12 -6.50922e-10 9.3903e-10 6.79466e-12 -1.13637e-09 5.53584e-10 7.44108e-12 -6.50936e-10 7.73091 5.47488 0.417314 5.53582e-10 7.44027e-12 -6.50929e-10 2.90554 0.965183 0.102902 5.5359e-10 7.44047e-12 -6.50927e-10 10.2786 0.731801 0.0259123 5.5358e-10 7.43983e-12 -6.5092e-10 2.22167 -0.733487 -0.20892 5.80477e-14 -5.13351e-14 -1.42429e-13 -41.0071 -3.63207 9.06201 6.19879 -2.55522 -10.4022 0.00560871 4.52974 -0.636465 9.44862e-11 1.15535e-09 -1.19235e-10 1.62896e-10 2.0001e-09 -2.06762e-10 9.44809e-11 1.15534e-09 -1.19232e-10 -7.73091 5.47488 -0.417314 9.4485e-11 1.15534e-09 -1.19239e-10 -2.90554 0.965183 -0.102902 9.44794e-11 1.15534e-09 -1.19236e-10 -10.2786 0.731801 -0.0259123 9.4494e-11 1.15534e-09 -1.19245e-10 -2.22167 -0.733487 0.20892 -2.03217e-16 0.0 -3.88251e-19 3.2065 -4.38758 0.782677 0.0410285 1.98375 0.269222 -4.29703 -9.94733 -18.948 2.03217e-16 0.0 3.88251e-19 -3.43529 -27.4983 3.95937 -0.0637322 16.9597 -0.495155 4.68726 -13.2384 14.0791
-16.5768 82.7885 88.5592 -179.644 -19.1033 -154.607 2.39472 -14.872 5.03768 -0.335328 -2.20005 0.881678 -0.290562 2.92236 1.91644 1.17788 23.107 -2.91189 -0.0 0.0 0.0 -0.0 0.0 0.0 7.69903e-14 -7.60937e-14 -2.08286e-13 61.5444 -4.00094 -9.88081 0.757127 0.171946 -1.29717 -0.678944 25.5155 3.78154 7.80469e-10 3.06631e-11 -8.6429e-10 1.32485e-09 4.44559e-11 -1.51019e-09 7.8047e-10 3.06672e-11 -8.64303e-10 7.73091 5.47488 0.417314 7.80467e-10 3.06665e-11 -8.64299e-10 2.90554 0.965183 0.102902 7.80477e-10 3.06668e-11 -8.64297e-10 10.2786 0.731801 0.0259123 7.80469e-10 3.06648e-11 -8.64289e-10 2.22167 -0.733487 -0.20892 7.70845e-14 -7.6088e-14 -2.08525e-13 -59.4314 -5.20422 13.2368 8.73835 -3.66057 -15.1975 0.0419551 6.59985 -0.930673 1.83062e-10 1.63673e-09 -2.40497e-10 3.15339e-10 2.83387e-09 -4.17089e-10 1.83057e-10 1.63672e-09 -2.40494e-10 -7.73091 5.47488 -0.417314 1.8306e-10 1.63672e-09 -2.40503e-10 -2.90554 0.965183 -0.102902 1.83056e-10 1.63672e-09 -2.40498e-10 -10.2786 0.731801 -0.0259123 1.8307e-10 1.63673e-09 -2.40506e-10 -2.22167 -0.733487 0.20892 -2.03217e-16 0.0 -3.88251e-19 4.55011 -5.12754 1.1548 0.0538547 3.21986 0.421004 -8.99473 -14.8765 -28.3204 2.03217e-16 0.0 3.88251e-19 -3.35469 -38.3446 6.50032 0.0140312 24.3208 -0.775252 9.3496 -19.7743 21.3336
-16.8713 82.7771 87.875 -178.909 -18.6991 -155.765 3.25454 -18.0523 6.15808 -0.349643 -2.62688 1.06128 -0.402882 3.49196 2.35437 1.79947 28.2196 -3.67137 -0.0 0.0 0.0 -0.0 0.0 0.0 6.59334e-14 -9.78046e-14 -2.57476e-13 74.8242 -4.78267 -11.9978 0.963128 0.217584 -1.64826 -1.34563 31.0151 4.84703 8.74036e-10 1.18864e-10 -7.04013e-10 1.4887e-09 1.96256e-10 -1.23616e-09 8.74038e-10 1.18868e-10 -7.04025e-10 7.73091 5.47488 0.417314 8.74035e-10 1.18867e-10 -7.04022e-10 2.90554 0.965183 0.102902 8.74045e-10 1.18867e-10 -7.0402e-10 10.2786 0.731801 0.0259123 8.74038e-10 1.18865e-10 -7.04013e-10 2.22167 -0.733487 -0.20892 6.60639e-14 -9.77978e-14 -2.57724e-13 -72.184 -6.19019 16.1346 10.4194 -4.40018 -18.5904 0.0795856 8.02213 -1.13494 4.42452e-10 1.79709e-09 -5.67239e-10 7.61512e-10 3.11326e-09 -9.83896e-10 4.42448e-10 1.79708e-09 -5.67236e-10 -7.73091 5.47488 -0.417314 4.4245e-10 1.79708e-09 -5.67246e-10 -2.90554 0.965183 -0.102902 4.42445e-10 1.79708e-09 -5.67241e-10 -10.2786 0.731801 -0.0259123 4.4246e-10 1.79708e-09 -5.67249e-10 -2.22167 -0.733487 0.20892 -2.03217e-16 0.0 -3.88251e-19 5.54164 -5.75219 1.40292 0.0584523 4.58299 0.534522 -13.3367 -17.4914 -35.2871 2.03217e-16 0.0 3.88251e-19 -2.51753 -45.7607 8.88344 0.118582 29.5134 -0.99349 13.6796 -23.8384 26.8559
-17.0932 82.7669 87.4407 -178.831 -18.4297 -156.2 3.49649 -19.1906 6.44838 -0.277243 -2.6874 1.10367 -0.500487 3.54509 2.56568 2.0813 30.3746 -3.90857 -0.0 0.0 0.0 -0.0 0.0 0.0 -1.82319e-15 -1.22895e-13 -3.02471e-13 79.9634 -4.95077 -12.6792 1.1305 0.253188 -1.93362 -1.66329 33.0727 5.29089 7.92871e-10 3.51996e-10 1.2304e-10 1.36482e-09 6.01163e-10 1.92357e-10 7.92874e-10 3.51998e-10 1.23029e-10 7.73091 5.47488 0.417314 7.9287e-10 3.51998e-10 1.23032e-10 2.90554 0.965183 0.102902 7.9288e-10 3.51998e-10 1.23034e-10 10.2786 0.731801 0.0259123 7.92871e-10 3.51996e-10 1.2304e-10 2.22167 -0.733487 -0.20892 -1.73839e-15 -1.22888e-13 -3.02723e-13 -77.265 -6.44163 17.212 11.0988 -4.70669 -20.0103 0.0963456 8.54511 -1.2106 1.12209e-09 1.53431e-09 -1.39551e-09 1.93055e-09 2.66332e-09 -2.42086e-09 1.12209e-09 1.5343e-09 -1.39551e-09 -7.73091 5.47488 -0.417314 1.12209e-09 1.5343e-09 -1.39551e-09 -2.90554 0.965183 -0.102902 1.12208e-09 1.5343e-09 -1.39551e-09 -10.2786 0.731801 -0.0259123 1.1221e-09 1.5343e-09 -1.39552e-09 -2.22167 -0.733487 0.20892 -2.03217e-16 0.0 -3.88251e-19 6.02386 -6.16689 1.55388 0.0561805 6.07828 0.594388 -15.3564 -18.1177 -38.3404 2.03217e-16 0.0 3.88251e-19 -2.00666 -48.4952 10.0446 0.174388 31.6929 -1.07904 15.6081 -25.3088 29.1041
-17.1731 82.7624 87.213 -178.534 -18.2947 -156.249 3.23289 -18.88 6.11787 -0.144371 -2.48676 1.04799 -0.582185 3.23181 2.6143 2.0408 30.4203 -3.72308 -0.0 0.0 0.0 -0.0 0.0 0.0 -1.0938e-13 -1.50035e-13 -3.43543e-13 79.3158 -4.69056 -12.3339 1.26936 0.281457 -2.17063 -1.60759 32.6818 5.20727 5.86328e-10 6.86082e-10 1.41952e-09 1.03433e-09 1.18242e-09 2.43373e-09 5.86335e-10 6.8608e-10 1.41951e-09 7.73091 5.47488 0.417314 5.86329e-10 6.8608e-10 1.41952e-09 2.90554 0.965183 0.102902 5.86339e-10 6.8608e-10 1.41952e-09 10.2786 0.731801 0.0259123 5.86326e-10 6.86081e-10 1.41952e-09 2.22167 -0.733487 -0.20892 -1.09399e-13 -1.50029e-13 -3.43795e-13 -76.9162 -6.19031 16.9819 11.1088 -4.72681 -20.0159 0.0930529 8.42552 -1.19334 2.09329e-09 9.68032e-10 -2.57183e-09 3.60107e-09 1.69018e-09 -4.46171e-09 2.09329e-09 9.68032e-10 -2.57182e-09 -7.73091 5.47488 -0.417314 2.09329e-09 9.68034e-10 -2.57183e-09 -2.90554 0.965183 -0.102902 2.09328e-09 9.68034e-10 -2.57183e-09 -10.2786 0.731801 -0.0259123 2.09329e-09 9.68034e-10 -2.57184e-09 -2.22167 -0.733487 0.20892 -2.03217e-16 0.0 -3.88251e-19 6.14044 -6.43405 1.63149 0.0508158 7.67016 0.616045 -15.342 -17.7081 -38.4821 2.03217e-16 0.0 3.88251e-19 -2.20729 -47.9371 9.9255 0.171616 31.7197 -1.05449 15.3689 -25.2055 28.787
-17.4076 82.7225 86.9304 -178.544 -18.7356 -156.556 2.77476 -18.0271 5.55306 -0.00060839 -2.19722 0.952666 -0.639272 2.84571 2.58164 1.90454 29.5647 -3.41808 -0.0 0.0 0.0 -0.0 0.0 0.0 -2.09353e-13 -1.65771e-13 -3.51919e-13 76.3663 -4.30232 -11.6425 1.36953 0.301107 -2.34174 -1.40475 31.2897 4.91172 3.10575e-10 9.74202e-10 2.67389e-09 5.84347e-10 1.68491e-09 4.60425e-09 3.10584e-10 9.74198e-10 2.67389e-09 7.73091 5.47488 0.417314 3.10576e-10 9.74197e-10 2.67389e-09 2.90554 0.965183 0.102902 3.10586e-10 9.74198e-10 2.67389e-09 10.2786 0.731801 0.0259123 3.1057e-10 9.742e-10 2.67389e-09 2.22167 -0.733487 -0.20892 -2.09481e-13 -1.65765e-13 -3.52168e-13 -74.3577 -5.73189 16.2333 10.8473 -4.62983 -19.444 0.0817446 8.03751 -1.13732 2.89133e-09 2.38286e-10 -3.5452e-09 4.97357e-09 4.32925e-10 -6.15036e-09 2.89133e-09 2.38288e-10 -3.5452e-09 -7.73091 5.47488 -0.417314 2.89133e-09 2.38292e-10 -3.5452e-09 -2.90554 0.965183 -0.102902 2.89131e-09 2.38293e-10 -3.5452e-09 -10.2786 0.731801 -0.0259123 2.89132e-09 2.38292e-10 -3.54521e-09 -2.22167 -0.733487 0.20892 -2.03217e-16 0.0 -3.88251e-19 6.12002 -6.72054 1.55576 0.0452276 9.37385 0.622697 -14.5178 -16.9471 -37.4058 2.03217e-16 0.0 3.88251e-19 -2.7281 -46.0872 9.19359 0.144996 30.8509 -0.985337 14.3002 -24.5394 27.456
-17.5866 82.6338 86.9189 -178.903 -18.7912 -156.244 2.41348 -17.5424 5.13337 0.103274 -1.99108 0.876065 -0.662674 2.68035 2.54889 1.89301 29.0171 -3.29591 -0.0 0.0 0.0 -0.0 0.0 0.0 -2.54359e-13 -1.56645e-13 -2.98823e-13 74.6145 -4.09039 -11.2831 1.42085 0.310854 -2.42939 -1.28034 30.344 4.71908 2.17757e-11 1.06944e-09 3.37463e-09 1.02002e-10 1.85353e-09 5.82023e-09 2.1786e-11 1.06943e-09 3.37463e-09 7.73091 5.47488 0.417314 2.17775e-11 1.06943e-09 3.37464e-09 2.90554 0.965183 0.102902 2.17871e-11 1.06943e-09 3.37464e-09 10.2786 0.731801 0.0259123 2.17697e-11 1.06944e-09 3.37464e-09 2.22167 -0.733487 -0.20892 -2.54547e-13 -1.56641e-13 -2.99072e-13 -72.8201 -5.36539 15.7526 10.7058 -4.58149 -19.1319 0.074337 7.75521 -1.0967 3.05151e-09 -5.14913e-10 -3.76463e-09 5.24853e-09 -8.69401e-10 -6.53075e-09 3.05151e-09 -5.14909e-10 -3.76463e-09 -7.73091 5.47488 -0.417314 3.05151e-09 -5.14904e-10 -3.76463e-09 -2.90554 0.965183 -0.102902 3.05149e-09 -5.14903e-10 -3.76463e-09 -10.2786 0.731801 -0.0259123 3.0515e-09 -5.14904e-10 -3.76464e-09 -2.22167 -0.733487 0.20892 -2.03217e-16 0.0 -3.88251e-19 6.18894 -7.19315 1.2465 0.039731 11.2045 0.637859 -14.1157 -16.4797 -36.7907 2.03217e-16 0.0 3.88251e-19 -3.15739 -44.9408 8.52819 0.130433 30.3439 -0.93824 13.7564 -24.3131 26.6728
